<svg width="1440" height="484" viewBox="0 0 1440 484" fill="none" xmlns="http://www.w3.org/2000/svg">
<path opacity="0.2" fill-rule="evenodd" clip-rule="evenodd" d="M-42.3906 436.565C21.8186 466.103 188.533 511.802 341.84 458.288C365.818 449.919 382.45 439.642 393.704 428.029C404.963 416.41 410.818 403.474 413.272 389.829C415.725 376.195 414.781 361.862 412.467 347.442C410.796 337.03 408.405 326.545 406.053 316.235C405.15 312.273 404.252 308.338 403.404 304.442C397.273 276.294 393.717 250.259 408.413 230.749C423.113 211.235 456.224 198.064 524.021 196.149C626.039 193.268 695.962 218.456 755.187 239.79C774.631 246.795 792.922 253.383 810.817 258.427C847.016 268.63 881.575 272.493 920.692 260.586C959.792 248.683 1003.39 221.039 1057.71 168.345C1111.95 115.739 1157.23 100.092 1197.65 104.876C1238.12 109.665 1273.85 134.934 1308.95 164.485C1317.43 171.624 1325.87 179.014 1334.34 186.422C1360.87 209.638 1387.59 233.024 1416.23 249.396C1454.04 271.016 1495.27 280.452 1543.94 261.231L1543.57 260.301C1495.26 279.383 1454.35 270.039 1416.72 248.528C1388.18 232.211 1361.57 208.919 1335.06 185.719L1335.05 185.718C1326.58 178.299 1318.11 170.889 1309.59 163.72C1274.49 134.166 1238.56 108.71 1197.77 103.883C1156.94 99.0511 1111.38 114.898 1057.02 167.627C1002.75 220.267 959.287 247.791 920.4 259.629C881.53 271.462 847.178 267.637 811.088 257.465C793.279 252.445 775.042 245.875 755.634 238.883C696.385 217.539 626.22 192.262 523.993 195.15C456.178 197.065 422.619 210.229 407.614 230.148C392.605 250.072 396.31 276.571 402.427 304.655C403.28 308.571 404.18 312.519 405.085 316.487C407.434 326.786 409.814 337.222 411.479 347.601C413.786 361.97 414.712 376.176 412.288 389.652C409.865 403.119 404.095 415.869 392.986 427.333C381.87 438.804 365.388 449.009 341.51 457.344C188.539 510.74 22.1069 465.135 -41.9728 435.657L-42.3906 436.565ZM321.637 424.241C168.33 477.754 1.61548 432.055 -62.5938 402.517L-62.1759 401.609C1.90381 431.087 168.336 476.693 321.307 423.296C345.185 414.962 361.667 404.756 372.782 393.286C383.892 381.821 389.662 369.072 392.085 355.605C394.509 342.128 393.583 327.922 391.276 313.553C389.611 303.175 387.231 292.739 384.882 282.439C383.977 278.471 383.077 274.524 382.224 270.608C376.107 242.524 372.402 216.025 387.411 196.1C402.416 176.181 435.975 163.018 503.79 161.102C606.017 158.215 676.182 183.492 735.431 204.836C754.839 211.828 773.076 218.398 790.885 223.417C826.975 233.59 861.327 237.414 900.197 225.581C939.083 213.744 982.547 186.22 1036.81 133.579C1091.17 80.8503 1136.74 65.0035 1177.57 69.8352C1218.36 74.6622 1254.29 100.118 1289.39 129.672C1297.91 136.842 1306.37 144.252 1314.85 151.672C1341.36 174.872 1367.98 198.163 1396.52 214.48C1434.15 235.991 1475.05 245.335 1523.37 226.253L1523.73 227.183C1475.07 246.404 1433.84 236.969 1396.02 215.348C1367.38 198.977 1340.66 175.59 1314.14 152.374L1314.13 152.369C1305.67 144.964 1297.23 137.575 1288.75 130.437C1253.65 100.887 1217.92 75.6171 1177.45 70.8283C1137.03 66.0443 1091.74 81.6915 1037.51 134.297C983.187 186.992 939.589 214.635 900.488 226.538C861.372 238.446 826.812 234.583 790.614 224.38C772.719 219.336 754.428 212.747 734.984 205.743C675.759 184.408 605.836 159.22 503.818 162.102C436.021 164.017 402.91 177.187 388.21 196.702C373.514 216.211 377.07 242.247 383.201 270.395C384.049 274.29 384.947 278.226 385.85 282.187C388.202 292.497 390.593 302.982 392.264 313.395C394.578 327.815 395.522 342.147 393.069 355.782C390.615 369.427 384.76 382.362 373.5 393.982C362.247 405.595 345.615 415.871 321.637 424.241ZM-82.7969 368.47C-18.5876 398.008 148.127 443.706 301.434 390.193C325.411 381.823 342.043 371.547 353.297 359.934C364.557 348.315 370.411 335.379 372.866 321.734C375.319 308.099 374.375 293.767 372.061 279.347C370.39 268.935 367.998 258.45 365.647 248.139C364.744 244.178 363.846 240.243 362.998 236.347C356.867 208.199 353.311 182.164 368.007 162.654C382.707 143.139 415.817 129.969 483.615 128.054C585.633 125.173 655.556 150.361 714.781 171.695C734.225 178.699 752.516 185.288 770.411 190.332C806.609 200.535 841.169 204.398 880.285 192.49C919.386 180.588 962.984 152.944 1017.31 100.25C1071.54 47.6439 1116.82 31.9966 1157.25 36.7807C1197.71 41.5695 1233.44 66.8391 1268.54 96.3896C1277.02 103.527 1285.46 110.915 1293.92 118.32L1293.93 118.321L1293.93 118.326L1293.93 118.327C1320.46 141.543 1347.18 164.929 1375.82 181.301C1413.64 202.921 1454.87 212.357 1503.53 193.135L1503.16 192.205C1454.85 211.288 1413.94 201.944 1376.32 180.433C1347.77 164.115 1321.16 140.824 1294.65 117.624C1286.17 110.205 1277.7 102.794 1269.19 95.6246C1234.08 66.0706 1198.15 40.6146 1157.37 35.7876C1116.54 30.9559 1070.97 46.8026 1016.61 99.5318C962.344 152.172 918.88 179.696 879.994 191.534C841.124 203.366 806.772 199.542 770.682 189.37C752.873 184.35 734.636 177.78 715.228 170.788C655.979 149.444 585.814 124.167 483.587 127.055C415.772 128.97 382.213 142.133 367.208 162.053C352.199 181.977 355.904 208.476 362.021 236.56C362.873 240.474 363.773 244.42 364.677 248.386L364.678 248.389L364.678 248.391L364.679 248.392C367.028 258.691 369.408 269.127 371.073 279.505C373.38 293.874 374.306 308.08 371.882 321.557C369.459 335.024 363.689 347.774 352.579 359.238C341.464 370.708 324.982 380.914 301.104 389.249C148.133 442.645 -18.2993 397.039 -82.379 367.561L-82.7969 368.47ZM-103 334.422C-38.7908 363.96 127.924 409.659 281.23 356.145C305.208 347.776 321.84 337.5 333.094 325.886C344.354 314.267 350.208 301.331 352.663 287.687C355.116 274.052 354.172 259.719 351.858 245.299C350.186 234.887 347.795 224.402 345.444 214.092C344.541 210.131 343.643 206.195 342.795 202.299C336.663 174.151 333.107 148.116 347.803 128.607C362.504 109.092 395.614 95.9214 463.412 94.0065C565.43 91.125 635.353 116.313 694.578 137.647C714.022 144.652 732.312 151.24 750.208 156.284C786.406 166.487 820.966 170.35 860.082 158.443C899.183 146.54 942.781 118.896 997.105 66.2019C1051.34 13.5963 1096.62 -2.05099 1137.05 2.73303C1177.51 7.52188 1213.24 32.7914 1248.34 62.3419C1256.82 69.4777 1265.26 76.864 1273.72 84.2675L1273.73 84.2768L1273.73 84.2789C1300.26 107.495 1326.98 130.881 1355.62 147.253C1393.43 168.873 1434.66 178.309 1483.33 159.088L1482.96 158.158C1434.65 177.24 1393.74 167.896 1356.11 146.385C1327.57 130.068 1300.96 106.777 1274.45 83.5765C1265.97 76.157 1257.5 68.7468 1248.98 61.577C1213.88 32.023 1177.95 6.56693 1137.16 1.73996C1096.33 -3.09177 1050.77 12.755 996.408 65.4841C942.141 118.124 898.677 145.649 859.791 157.486C820.921 169.319 786.569 165.494 750.479 155.322C732.671 150.302 714.434 143.733 695.027 136.741L695.025 136.741C635.776 115.396 565.61 90.1195 463.384 93.0069C395.568 94.9223 362.009 108.086 347.005 128.005C331.996 147.929 335.7 174.429 341.818 202.512C342.67 206.428 343.57 210.375 344.475 214.342L344.475 214.343L344.476 214.344C346.824 224.643 349.204 235.08 350.87 245.458C353.176 259.827 354.103 274.033 351.679 287.509C349.256 300.976 343.486 313.726 332.376 325.19C321.261 336.661 304.779 346.866 280.901 355.201C127.93 408.597 -38.5024 362.992 -102.582 333.514L-103 334.422Z" fill="url(#paint0_linear_3137_36414)"/>
<defs>
<linearGradient id="paint0_linear_3137_36414" x1="1354.54" y1="123.265" x2="-88.907" y2="123.265" gradientUnits="userSpaceOnUse">
<stop offset="0.310417" stop-color="#4535AF" stop-opacity="0.7"/>
<stop offset="0.461458" stop-color="#F8EFF4" stop-opacity="0.1"/>
<stop offset="0.851637" stop-color="#4535AF" stop-opacity="0.8"/>
</linearGradient>
</defs>
</svg>
