<svg xmlns:xlink="http://www.w3.org/1999/xlink" width="136" height="40" fill="none" xmlns="http://www.w3.org/2000/svg"><path d="M130.963 39.5H5.037C2.267 39.5 0 37.305 0 34.625V5.375C0 2.695 2.268.5 5.037.5h125.926C133.732.5 136 2.695 136 5.375v29.25c0 2.68-2.268 4.875-5.037 4.875Z" fill="#3813A0"></path><path d="M130.963 1.281c2.332 0 4.23 1.837 4.23 4.094v29.25c0 2.257-1.898 4.094-4.23 4.094H5.037c-2.332 0-4.23-1.837-4.23-4.094V5.375c0-2.257 1.898-4.094 4.23-4.094h125.926Zm0-.781H5.037C2.267.5 0 2.695 0 5.375v29.25c0 2.68 2.268 4.875 5.037 4.875h125.926c2.769 0 5.037-2.195 5.037-4.875V5.375C136 2.695 133.732.5 130.963.5Z" fill="#67656E"></path><path d="M10.512 7.85c-.296.3-.467.767-.467 1.371v21.563c0 .604.171 1.07.467 1.37l.073.066L23.07 20.144v-.285L10.585 7.78l-.073.07Z" fill="url(&quot;#blue-playstore_svg__a&quot;)"></path><path d="m27.226 24.17-4.156-4.027v-.286l4.161-4.028.094.053 4.928 2.714c1.407.77 1.407 2.038 0 2.813l-4.928 2.71-.099.052Z" fill="url(&quot;#blue-playstore_svg__b&quot;)"></path><path d="M27.325 24.118 23.07 20 10.512 32.155c.468.475 1.23.532 2.096.057l14.717-8.094Z" fill="url(&quot;#blue-playstore_svg__c&quot;)"></path><path d="M27.325 15.882 12.608 7.788c-.867-.47-1.628-.413-2.096.062L23.07 20l4.255-4.118Z" fill="url(&quot;#blue-playstore_svg__d&quot;)"></path><path d="M47.769 10.488c0 .814-.252 1.466-.748 1.952-.57.577-1.314.867-2.224.867-.87 0-1.613-.295-2.223-.877-.61-.59-.915-1.313-.915-2.18 0-.867.304-1.59.915-2.175.61-.587 1.353-.882 2.223-.882.433 0 .846.087 1.24.248.393.162.713.381.945.652l-.527.514c-.404-.462-.954-.69-1.658-.69a2.35 2.35 0 0 0-1.652.647c-.463.434-.694.996-.694 1.686s.231 1.257.694 1.69a2.37 2.37 0 0 0 1.652.648c.674 0 1.24-.22 1.687-.652.295-.287.462-.682.506-1.186h-2.193v-.705h2.926c.035.153.046.3.046.443ZM52.411 8.045h-2.748v1.853h2.478v.704h-2.478v1.853h2.748v.717h-3.527V7.327h3.527v.718ZM55.688 13.172h-.778V8.046h-1.686v-.718h4.151v.718h-1.687v5.127ZM60.38 13.172V7.327h.777v5.845h-.777ZM64.601 13.172h-.772V8.046h-1.692v-.718h4.156v.718h-1.692v5.127ZM74.154 12.42c-.596.592-1.334.887-2.214.887-.885 0-1.623-.295-2.219-.886-.594-.59-.89-1.314-.89-2.171 0-.857.296-1.58.89-2.17.596-.592 1.334-.887 2.22-.887.874 0 1.612.295 2.208.891.6.595.895 1.314.895 2.166 0 .857-.296 1.58-.89 2.17Zm-3.857-.49c.448.438.993.658 1.643.658.645 0 1.195-.22 1.639-.657.447-.438.673-1 .673-1.681s-.227-1.243-.673-1.68c-.444-.438-.994-.658-1.639-.658-.65 0-1.195.22-1.643.657-.447.438-.674 1-.674 1.681s.227 1.243.674 1.68ZM76.136 13.172V7.327h.944l2.937 4.546h.034l-.034-1.123V7.327h.777v5.845h-.811l-3.075-4.77h-.034l.034 1.129v3.641h-.772Z" fill="#FFFFFF" stroke="#FFFFFF" stroke-width="0.16px" stroke-miterlimit="10"></path><path d="M68.64 21.709c-2.367 0-4.3 1.742-4.3 4.147 0 2.385 1.933 4.146 4.3 4.146 2.37 0 4.304-1.76 4.304-4.146 0-2.405-1.933-4.147-4.304-4.147Zm0 6.66c-1.299 0-2.416-1.037-2.416-2.513 0-1.495 1.117-2.514 2.416-2.514 1.298 0 2.42 1.019 2.42 2.514 0 1.476-1.122 2.513-2.42 2.513Zm-9.38-6.66c-2.372 0-4.3 1.742-4.3 4.147 0 2.385 1.928 4.146 4.3 4.146 2.37 0 4.299-1.76 4.299-4.146 0-2.405-1.93-4.147-4.3-4.147Zm0 6.66c-1.3 0-2.42-1.037-2.42-2.513 0-1.495 1.12-2.514 2.42-2.514 1.298 0 2.415 1.019 2.415 2.514 0 1.476-1.117 2.513-2.415 2.513Zm-11.163-5.39v1.763h4.349c-.128.985-.468 1.709-.989 2.213-.635.61-1.623 1.286-3.36 1.286-2.675 0-4.77-2.09-4.77-4.68s2.095-4.68 4.77-4.68c1.447 0 2.5.547 3.277 1.257l1.283-1.242c-1.087-1.004-2.532-1.776-4.56-1.776-3.67 0-6.753 2.89-6.753 6.441 0 3.552 3.084 6.441 6.753 6.441 1.984 0 3.473-.629 4.645-1.808 1.2-1.162 1.574-2.795 1.574-4.114 0-.41-.036-.786-.099-1.1h-6.12Zm45.643 1.367c-.353-.927-1.445-2.637-3.669-2.637-2.204 0-4.038 1.68-4.038 4.147 0 2.323 1.815 4.146 4.25 4.146a4.28 4.28 0 0 0 3.57-1.838l-1.46-.942c-.487.69-1.15 1.147-2.11 1.147-.954 0-1.638-.423-2.076-1.256l5.731-2.295-.198-.472Zm-5.843 1.38c-.049-1.598 1.284-2.417 2.238-2.417.748 0 1.383.362 1.594.88l-3.832 1.538ZM83.24 29.75h1.883V17.562H83.24V29.75Zm-3.086-7.117h-.063c-.423-.485-1.23-.924-2.252-.924-2.146 0-4.108 1.823-4.108 4.16 0 2.325 1.962 4.133 4.108 4.133 1.022 0 1.83-.442 2.252-.942h.063v.595c0 1.586-.875 2.438-2.286 2.438-1.151 0-1.865-.805-2.16-1.481l-1.638.662a4.086 4.086 0 0 0 3.798 2.452c2.208 0 4.072-1.258 4.072-4.318V21.96h-1.786v.672ZM78 28.369c-1.299 0-2.385-1.052-2.385-2.5 0-1.46 1.087-2.527 2.385-2.527 1.28 0 2.288 1.066 2.288 2.527 0 1.448-1.009 2.5-2.288 2.5Zm24.56-10.806h-4.505V29.75h1.878v-4.618h2.627c2.087 0 4.133-1.461 4.133-3.785 0-2.323-2.051-3.785-4.133-3.785Zm.049 5.874h-2.675v-4.18h2.675c1.403 0 2.204 1.128 2.204 2.09 0 .943-.801 2.09-2.204 2.09Zm11.615-1.751c-1.358 0-2.77.58-3.35 1.866l1.667.676c.359-.677 1.019-.896 1.717-.896.974 0 1.963.567 1.978 1.567v.128c-.34-.19-1.068-.471-1.963-.471-1.796 0-3.626.956-3.626 2.742 0 1.633 1.471 2.685 3.125 2.685 1.264 0 1.961-.552 2.4-1.195h.064v.942h1.814v-4.675c0-2.16-1.667-3.37-3.826-3.37Zm-.227 6.678c-.615 0-1.471-.295-1.471-1.032 0-.943 1.068-1.305 1.992-1.305.828 0 1.215.176 1.718.41-.147 1.128-1.151 1.927-2.239 1.927Zm10.665-6.412-2.16 5.284h-.064l-2.233-5.284h-2.026l3.355 7.384-1.914 4.108h1.963l5.169-11.492h-2.09Zm-16.936 7.798h1.884V17.562h-1.884V29.75Z" fill="#FFFFFF"></path><defs><linearGradient id="blue-playstore_svg__a" x1="21.961" y1="31.008" x2="5.607" y2="14.11" gradientUnits="userSpaceOnUse"><stop stop-color="#00A0FF"></stop><stop offset="0.007" stop-color="#00A1FF"></stop><stop offset="0.26" stop-color="#00BEFF"></stop><stop offset="0.512" stop-color="#00D2FF"></stop><stop offset="0.76" stop-color="#00DFFF"></stop><stop offset="1" stop-color="#00E3FF"></stop></linearGradient><linearGradient id="blue-playstore_svg__b" x1="34.085" y1="19.999" x2="9.709" y2="19.999" gradientUnits="userSpaceOnUse"><stop stop-color="#FFE000"></stop><stop offset="0.409" stop-color="#FFBD00"></stop><stop offset="0.775" stop-color="orange"></stop><stop offset="1" stop-color="#FF9C00"></stop></linearGradient><linearGradient id="blue-playstore_svg__c" x1="25.011" y1="17.761" x2="2.834" y2="-5.153" gradientUnits="userSpaceOnUse"><stop stop-color="#FF3A44"></stop><stop offset="1" stop-color="#C31162"></stop></linearGradient><linearGradient id="blue-playstore_svg__d" x1="7.352" y1="39.328" x2="17.255" y2="29.096" gradientUnits="userSpaceOnUse"><stop stop-color="#32A071"></stop><stop offset="0.069" stop-color="#2DA771"></stop><stop offset="0.476" stop-color="#15CF74"></stop><stop offset="0.801" stop-color="#06E775"></stop><stop offset="1" stop-color="#00F076"></stop></linearGradient><linearGradient id="blue-playstore_svg__a" x1="21.961" y1="31.008" x2="5.607" y2="14.11" gradientUnits="userSpaceOnUse"><stop stop-color="#00A0FF"></stop><stop offset="0.007" stop-color="#00A1FF"></stop><stop offset="0.26" stop-color="#00BEFF"></stop><stop offset="0.512" stop-color="#00D2FF"></stop><stop offset="0.76" stop-color="#00DFFF"></stop><stop offset="1" stop-color="#00E3FF"></stop></linearGradient><linearGradient id="blue-playstore_svg__b" x1="34.085" y1="19.999" x2="9.709" y2="19.999" gradientUnits="userSpaceOnUse"><stop stop-color="#FFE000"></stop><stop offset="0.409" stop-color="#FFBD00"></stop><stop offset="0.775" stop-color="orange"></stop><stop offset="1" stop-color="#FF9C00"></stop></linearGradient><linearGradient id="blue-playstore_svg__c" x1="25.011" y1="17.761" x2="2.834" y2="-5.153" gradientUnits="userSpaceOnUse"><stop stop-color="#FF3A44"></stop><stop offset="1" stop-color="#C31162"></stop></linearGradient><linearGradient id="blue-playstore_svg__d" x1="7.352" y1="39.328" x2="17.255" y2="29.096" gradientUnits="userSpaceOnUse"><stop stop-color="#32A071"></stop><stop offset="0.069" stop-color="#2DA771"></stop><stop offset="0.476" stop-color="#15CF74"></stop><stop offset="0.801" stop-color="#06E775"></stop><stop offset="1" stop-color="#00F076"></stop></linearGradient><linearGradient id="blue-playstore_svg__a" x1="21.961" y1="31.008" x2="5.607" y2="14.11" gradientUnits="userSpaceOnUse"><stop stop-color="#00A0FF"></stop><stop offset="0.007" stop-color="#00A1FF"></stop><stop offset="0.26" stop-color="#00BEFF"></stop><stop offset="0.512" stop-color="#00D2FF"></stop><stop offset="0.76" stop-color="#00DFFF"></stop><stop offset="1" stop-color="#00E3FF"></stop></linearGradient><linearGradient id="blue-playstore_svg__b" x1="34.085" y1="19.999" x2="9.709" y2="19.999" gradientUnits="userSpaceOnUse"><stop stop-color="#FFE000"></stop><stop offset="0.409" stop-color="#FFBD00"></stop><stop offset="0.775" stop-color="orange"></stop><stop offset="1" stop-color="#FF9C00"></stop></linearGradient><linearGradient id="blue-playstore_svg__c" x1="25.011" y1="17.761" x2="2.834" y2="-5.153" gradientUnits="userSpaceOnUse"><stop stop-color="#FF3A44"></stop><stop offset="1" stop-color="#C31162"></stop></linearGradient><linearGradient id="blue-playstore_svg__d" x1="7.352" y1="39.328" x2="17.255" y2="29.096" gradientUnits="userSpaceOnUse"><stop stop-color="#32A071"></stop><stop offset="0.069" stop-color="#2DA771"></stop><stop offset="0.476" stop-color="#15CF74"></stop><stop offset="0.801" stop-color="#06E775"></stop><stop offset="1" stop-color="#00F076"></stop></linearGradient></defs></svg>