<svg xmlns:xlink="http://www.w3.org/1999/xlink" width="136" height="40" fill="none" xmlns="http://www.w3.org/2000/svg"><path d="M135.244 35.002c0 2.079-1.731 3.762-3.873 3.762H4.633c-2.14 0-3.878-1.683-3.878-3.762v-30c0-2.077 1.738-3.766 3.878-3.766H131.37c2.143 0 3.873 1.69 3.873 3.767l.001 30Z" fill="#3813A0"></path><path d="M130.963 1.281c2.332 0 4.23 1.837 4.23 4.094v29.25c0 2.257-1.898 4.094-4.23 4.094H5.037c-2.332 0-4.23-1.837-4.23-4.094V5.375c0-2.257 1.898-4.094 4.23-4.094h125.926Zm0-.781H5.037C2.267.5 0 2.695 0 5.375v29.25c0 2.68 2.268 4.875 5.037 4.875h125.926c2.769 0 5.037-2.195 5.037-4.875V5.375C136 2.695 133.732.5 130.963.5Z" fill="#67656E"></path><path d="M30.351 19.79c-.029-3.143 2.659-4.672 2.782-4.743-1.523-2.148-3.882-2.442-4.711-2.465-1.982-.202-3.904 1.148-4.913 1.148-1.03 0-2.584-1.128-4.26-1.095-2.155.032-4.172 1.24-5.278 3.116-2.283 3.825-.58 9.446 1.607 12.537 1.094 1.515 2.372 3.205 4.045 3.146 1.637-.066 2.249-1.01 4.224-1.01 1.958 0 2.532 1.01 4.239.972 1.757-.028 2.863-1.521 3.918-3.05 1.265-1.735 1.772-3.444 1.793-3.532-.042-.013-3.412-1.258-3.446-5.025ZM27.128 10.548c.88-1.065 1.482-2.515 1.315-3.986-1.274.054-2.868.853-3.786 1.895-.812.918-1.537 2.424-1.35 3.84 1.432.103 2.902-.7 3.82-1.749ZM49.413 10.259c0 1.147-.355 2.011-1.066 2.591-.657.536-1.592.804-2.803.804-.6 0-1.114-.026-1.544-.076v-6.27a11.768 11.768 0 0 1 1.818-.133c1.153 0 2.023.243 2.61.728.656.55.985 1.334.985 2.356Zm-1.113.028c0-.744-.203-1.314-.61-1.712-.407-.397-1.002-.596-1.784-.596-.333 0-.616.022-.85.066v4.767c.13.02.367.029.713.029.808 0 1.431-.218 1.87-.653.44-.435.661-1.068.661-1.901ZM55.316 11.261c0 .707-.209 1.286-.626 1.74-.437.468-1.016.7-1.74.7-.697 0-1.252-.223-1.666-.671-.413-.448-.62-1.012-.62-1.693 0-.712.213-1.296.64-1.749.427-.453 1.002-.68 1.725-.68.697 0 1.257.223 1.681.67.403.435.606.997.606 1.683Zm-1.095.033c0-.424-.095-.787-.283-1.09-.222-.367-.537-.55-.947-.55-.425 0-.747.183-.968.55-.19.303-.284.672-.284 1.109 0 .424.095.788.284 1.09.228.367.547.55.958.55.402 0 .719-.185.947-.559.195-.309.293-.676.293-1.1ZM63.23 9.001l-1.486 4.596h-.967l-.616-1.996a14.573 14.573 0 0 1-.382-1.485h-.019c-.091.505-.218 1-.382 1.485l-.653 1.996h-.979L56.35 9.001h1.085l.537 2.185c.13.517.237 1.01.322 1.475h.02c.078-.384.208-.873.391-1.465l.674-2.194h.86l.647 2.147c.156.524.282 1.028.38 1.513h.03c.071-.473.179-.977.322-1.513l.576-2.147h1.037v-.001ZM68.703 13.597h-1.056v-2.632c0-.812-.318-1.217-.957-1.217a.966.966 0 0 0-.762.334 1.164 1.164 0 0 0-.293.788v2.726h-1.056v-3.282c0-.403-.013-.841-.038-1.315h.927l.05.719h.029c.123-.224.306-.408.547-.555a1.83 1.83 0 0 1 .957-.258c.443 0 .812.138 1.105.416.365.34.547.848.547 1.523v2.753ZM71.615 13.597H70.56V6.892h1.055v6.705ZM77.83 11.261c0 .707-.208 1.286-.625 1.74-.437.468-1.018.7-1.74.7-.698 0-1.253-.223-1.666-.671-.413-.448-.62-1.012-.62-1.693 0-.712.213-1.296.64-1.749.427-.453 1.001-.68 1.724-.68.698 0 1.257.223 1.682.67.403.435.605.997.605 1.683Zm-1.096.033c0-.424-.094-.787-.283-1.09-.22-.367-.537-.55-.946-.55-.425 0-.747.183-.968.55-.19.303-.283.672-.283 1.109 0 .424.095.788.283 1.09.229.367.547.55.958.55.403 0 .718-.185.946-.559.197-.309.293-.676.293-1.1ZM82.94 13.597h-.948l-.079-.53h-.03c-.323.423-.786.634-1.386.634-.449 0-.811-.139-1.084-.416a1.282 1.282 0 0 1-.372-.936c0-.561.242-.99.728-1.286.486-.296 1.169-.442 2.048-.435v-.085c0-.606-.328-.908-.986-.908-.468 0-.881.114-1.238.34l-.215-.67c.442-.265.987-.398 1.63-.398 1.24 0 1.863.634 1.863 1.902V12.5c0 .46.023.825.069 1.096Zm-1.096-1.58v-.708c-1.165-.02-1.747.29-1.747.926 0 .24.066.42.202.54.136.12.31.179.516.179.232 0 .448-.072.646-.213a.869.869 0 0 0 .383-.723ZM88.94 13.597h-.938l-.05-.738h-.028c-.3.562-.81.842-1.526.842a1.811 1.811 0 0 1-1.426-.652c-.378-.435-.566-1-.566-1.692 0-.744.204-1.347.615-1.807a1.92 1.92 0 0 1 1.466-.644c.638 0 1.084.208 1.338.624h.02V6.892h1.057v5.467c0 .447.012.86.037 1.238Zm-1.095-1.938v-.767a1.157 1.157 0 0 0-.411-.94 1.058 1.058 0 0 0-.706-.25c-.394 0-.702.15-.929.453-.225.304-.339.69-.339 1.164 0 .454.108.822.325 1.106.229.302.537.454.923.454.346 0 .623-.126.834-.379.203-.233.303-.514.303-.841ZM97.969 11.261c0 .707-.209 1.286-.626 1.74-.437.468-1.016.7-1.74.7-.696 0-1.251-.223-1.666-.671-.413-.448-.62-1.012-.62-1.693 0-.712.213-1.296.64-1.749.427-.453 1.001-.68 1.726-.68.696 0 1.257.223 1.68.67.403.435.606.997.606 1.683Zm-1.094.033c0-.424-.095-.787-.284-1.09-.222-.367-.536-.55-.947-.55-.424 0-.746.183-.969.55-.189.303-.283.672-.283 1.109 0 .424.095.788.283 1.09.229.367.547.55.958.55.403 0 .72-.185.948-.559.195-.309.293-.676.293-1.1ZM103.645 13.597h-1.055v-2.632c0-.812-.318-1.217-.958-1.217a.962.962 0 0 0-.761.334 1.157 1.157 0 0 0-.294.788v2.726h-1.056v-3.282c0-.403-.012-.841-.038-1.315h.927l.05.719h.029c.124-.224.307-.408.547-.555.287-.172.606-.258.958-.258.442 0 .811.138 1.104.416.366.34.547.848.547 1.523v2.753ZM110.75 9.766h-1.162V12c0 .567.206.851.615.851.19 0 .347-.015.471-.047l.027.775c-.209.076-.483.114-.82.114-.417 0-.742-.123-.976-.369-.236-.246-.353-.659-.353-1.24V9.767h-.694v-.765h.694v-.842l1.035-.303V9h1.162v.766h.001ZM116.34 13.597h-1.057v-2.613c0-.824-.318-1.236-.956-1.236-.49 0-.824.239-1.008.716-.031.1-.049.224-.049.368v2.764h-1.055V6.892h1.055v2.77h.02c.333-.504.809-.756 1.427-.756.437 0 .799.139 1.086.417.357.346.537.86.537 1.541v2.733ZM122.105 11.082c0 .183-.014.337-.039.463h-3.167c.014.454.166.8.459 1.04.268.215.613.322 1.036.322.469 0 .896-.072 1.281-.217l.165.71c-.45.188-.98.283-1.594.283-.735 0-1.314-.21-1.734-.629-.421-.42-.629-.982-.629-1.688 0-.693.194-1.27.586-1.73.409-.492.962-.737 1.66-.737.683 0 1.202.245 1.553.737.283.39.423.872.423 1.446Zm-1.008-.264a1.335 1.335 0 0 0-.204-.785c-.183-.284-.462-.426-.84-.426-.345 0-.626.138-.84.416a1.519 1.519 0 0 0-.314.795h2.198ZM54.042 31.216h-2.288l-1.253-3.81h-4.356l-1.194 3.81h-2.227l4.316-12.975h2.666l4.336 12.975Zm-3.919-5.41-1.133-3.388c-.12-.346-.344-1.161-.676-2.444h-.04a91.464 91.464 0 0 1-.637 2.444l-1.113 3.388h3.6ZM65.141 26.423c0 1.592-.444 2.85-1.333 3.773-.796.822-1.784 1.232-2.964 1.232-1.273 0-2.188-.443-2.745-1.328h-.04v4.929H55.91V24.94c0-1-.027-2.027-.08-3.08h1.89l.12 1.483h.04c.716-1.117 1.803-1.675 3.262-1.675 1.14 0 2.092.436 2.854 1.309.763.873 1.144 2.022 1.144 3.446Zm-2.188.077c0-.911-.212-1.662-.637-2.253-.464-.616-1.088-.924-1.87-.924-.53 0-1.011.171-1.441.51a2.355 2.355 0 0 0-.845 1.339 2.64 2.64 0 0 0-.1.633v1.56c0 .68.215 1.255.647 1.724.43.469.991.703 1.68.703.809 0 1.439-.302 1.889-.905.451-.603.677-1.399.677-2.387ZM76.26 26.423c0 1.592-.445 2.85-1.334 3.773-.795.822-1.783 1.232-2.963 1.232-1.273 0-2.188-.443-2.744-1.328h-.04v4.929H67.03V24.94c0-1-.027-2.027-.08-3.08h1.89l.119 1.483H69c.716-1.117 1.802-1.675 3.262-1.675 1.14 0 2.092.436 2.855 1.309.76.873 1.143 2.022 1.143 3.446Zm-2.189.077c0-.911-.212-1.662-.637-2.253-.465-.616-1.086-.924-1.869-.924-.53 0-1.011.171-1.442.51a2.354 2.354 0 0 0-.845 1.339c-.065.257-.1.468-.1.633v1.56c0 .68.216 1.255.645 1.724.431.468.992.703 1.683.703.809 0 1.438-.302 1.889-.905.45-.603.677-1.399.677-2.387ZM88.691 27.578c0 1.104-.396 2.001-1.19 2.695-.874.757-2.09 1.136-3.652 1.136-1.443 0-2.6-.27-3.475-.809l.498-1.732a6.036 6.036 0 0 0 3.105.828c.808 0 1.438-.177 1.89-.53.45-.353.675-.827.675-1.418 0-.526-.185-.97-.557-1.33-.37-.36-.987-.694-1.85-1.003-2.347-.847-3.52-2.088-3.52-3.72 0-1.067.412-1.942 1.235-2.622.82-.682 1.914-1.022 3.282-1.022 1.22 0 2.233.206 3.042.616l-.537 1.695c-.755-.398-1.61-.597-2.565-.597-.756 0-1.346.18-1.77.54-.357.32-.536.711-.536 1.174 0 .513.204.937.615 1.27.358.309 1.007.642 1.95 1.002 1.154.45 2.001.975 2.546 1.577.543.601.814 1.353.814 2.25ZM95.793 23.42h-2.368v4.543c0 1.155.417 1.732 1.253 1.732.384 0 .703-.032.954-.096l.06 1.578c-.423.154-.98.23-1.67.23-.849 0-1.512-.25-1.99-.75-.477-.501-.716-1.342-.716-2.523v-4.716h-1.41v-1.56h1.41v-1.713l2.11-.616v2.33h2.367v1.561ZM106.474 26.461c0 1.438-.425 2.62-1.273 3.543-.89.95-2.071 1.424-3.542 1.424-1.419 0-2.548-.455-3.39-1.366-.843-.91-1.264-2.06-1.264-3.446 0-1.45.434-2.637 1.303-3.56.867-.925 2.038-1.387 3.51-1.387 1.418 0 2.56.456 3.421 1.367.824.884 1.235 2.026 1.235 3.425Zm-2.228.068c0-.863-.191-1.603-.577-2.22-.45-.747-1.094-1.12-1.928-1.12-.863 0-1.519.374-1.97 1.12-.385.618-.576 1.37-.576 2.259 0 .862.19 1.602.577 2.219.464.747 1.113 1.119 1.95 1.119.82 0 1.464-.38 1.928-1.139.396-.629.596-1.377.596-2.238ZM113.455 23.689a3.846 3.846 0 0 0-.677-.058c-.755 0-1.34.276-1.751.829-.357.487-.537 1.104-.537 1.847v4.91h-2.146l.02-6.41c0-1.078-.027-2.06-.081-2.946h1.871l.079 1.79h.059a3.203 3.203 0 0 1 1.074-1.482 2.653 2.653 0 0 1 1.552-.5c.199 0 .378.013.537.037v1.983ZM123.061 26.096c0 .372-.025.686-.079.943h-6.443c.025.924.336 1.63.935 2.118.543.436 1.245.654 2.107.654.954 0 1.825-.147 2.607-.442l.337 1.443c-.915.386-1.995.578-3.241.578-1.499 0-2.676-.427-3.532-1.28-.854-.853-1.282-1.999-1.282-3.436 0-1.41.398-2.586 1.195-3.523.834-1 1.961-1.5 3.379-1.5 1.394 0 2.448.5 3.165 1.5.567.795.852 1.778.852 2.945Zm-2.048-.54c.014-.616-.126-1.148-.417-1.597-.372-.579-.943-.867-1.712-.867-.702 0-1.273.282-1.709.847-.358.45-.571.989-.636 1.617h4.474Z" fill="#FFFFFF"></path></svg>