<svg xmlns:xlink="http://www.w3.org/1999/xlink" xmlns="http://www.w3.org/2000/svg" viewBox="0 0 369.63693774497887 51.38990126253289" height="51.38990126253289" width="369.63693774497887" style="width: 369.637px; height: 51.3899px; position: absolute; top: 50%; left: 50%; transform: translate(-50%, -50%) scale(0.415435); z-index: 0; cursor: pointer;"><defs id="SvgjsDefs1035"></defs><g id="SvgjsG1036" featurekey="symbolFeature-0" transform="matrix(0.7321854227758192,0,0,0.7321854227758192,-7.90833588538631,-10.91395671071316)" fill="#AA96DA"><g xmlns="http://www.w3.org/2000/svg" fill="#AA96DA"><path d="M65.188,60.808V45.979c0-2.408-1.952-4.36-4.36-4.36H45.999c-2.408,0-4.361,1.952-4.361,4.36v14.829   c0,2.408,1.953,4.36,4.361,4.36h14.828C63.235,65.168,65.188,63.216,65.188,60.808z" fill="#AA96DA"></path><path d="M20.191,39.366h11.59c0.285,2.011,1.996,3.562,4.085,3.562c2.288,0,4.143-1.854,4.143-4.143s-1.854-4.143-4.143-4.143   c-2.089,0-3.8,1.551-4.085,3.562h-11.59c-0.29-2.329-2.26-4.144-4.666-4.144c-2.604,0-4.724,2.119-4.724,4.725   c0,2.604,2.119,4.725,4.724,4.725C17.932,43.51,19.901,41.695,20.191,39.366z M11.964,38.785c0-1.964,1.598-3.562,3.562-3.562   s3.562,1.598,3.562,3.562s-1.598,3.562-3.562,3.562S11.964,40.749,11.964,38.785z" fill="#AA96DA"></path><path d="M20.25,63.191v-8.749h11.378c0.516,1.702,2.077,2.948,3.947,2.948c2.288,0,4.143-1.854,4.143-4.143   s-1.854-4.144-4.143-4.144s-4.143,1.855-4.143,4.144c0,0.012,0.003,0.021,0.003,0.032H19.087v0.258v0.904v8.748   c-2.328,0.29-4.143,2.259-4.143,4.665c0,2.605,2.119,4.725,4.724,4.725c2.605,0,4.725-2.119,4.725-4.725   C24.393,65.45,22.578,63.481,20.25,63.191z M19.668,71.417c-1.963,0-3.562-1.598-3.562-3.562s1.599-3.562,3.562-3.562   c1.964,0,3.562,1.598,3.562,3.562S21.632,71.417,19.668,71.417z" fill="#AA96DA"></path><path d="M36.156,75.703v-3.764c2.011-0.285,3.562-1.995,3.562-4.084c0-2.288-1.854-4.143-4.143-4.143s-4.143,1.854-4.143,4.143   c0,2.089,1.551,3.799,3.562,4.084v3.764c-2.328,0.291-4.144,2.26-4.144,4.666c0,2.604,2.12,4.724,4.725,4.724   s4.725-2.119,4.725-4.724C40.3,77.963,38.484,75.994,36.156,75.703z M35.575,83.931c-1.964,0-3.562-1.598-3.562-3.562   c0-1.9,1.501-3.445,3.378-3.543h0.367c1.877,0.098,3.378,1.643,3.378,3.543C39.137,82.333,37.539,83.931,35.575,83.931z" fill="#AA96DA"></path><path d="M53.995,33.576c2.406,0,4.375-1.814,4.666-4.143h12.025v5.268c-2.011,0.285-3.562,1.995-3.562,4.084   c0,2.288,1.854,4.143,4.143,4.143s4.144-1.854,4.144-4.143c0-2.089-1.552-3.799-3.562-4.084v-5.268h2.776v-1.163H74.61v-3.974   c2.329-0.291,4.144-2.259,4.144-4.666c0-2.604-2.119-4.724-4.725-4.724c-2.604,0-4.724,2.119-4.724,4.724   c0,2.406,1.814,4.375,4.143,4.666v3.974H58.661c-0.29-2.328-2.26-4.143-4.666-4.143c-2.604,0-4.725,2.119-4.725,4.724   C49.271,31.457,51.391,33.576,53.995,33.576z M70.468,19.631c0-1.964,1.598-3.562,3.562-3.562s3.562,1.598,3.562,3.562   s-1.598,3.562-3.562,3.562S70.468,21.595,70.468,19.631z M53.995,25.29c1.964,0,3.562,1.599,3.562,3.562   c0,1.964-1.598,3.562-3.562,3.562s-3.562-1.598-3.562-3.562C50.434,26.889,52.031,25.29,53.995,25.29z" fill="#AA96DA"></path><path d="M71.268,63.713c-2.288,0-4.143,1.854-4.143,4.143c0,2.089,1.551,3.799,3.561,4.084v6.485H60.236   c-0.291-2.329-2.26-4.143-4.665-4.143c-2.605,0-4.725,2.119-4.725,4.725c0,2.604,2.119,4.724,4.725,4.724   c2.405,0,4.375-1.814,4.665-4.143H71.8v-0.581h0.049v-7.067c2.011-0.285,3.562-1.995,3.562-4.084   C75.41,65.567,73.556,63.713,71.268,63.713z M55.571,82.568c-1.964,0-3.562-1.599-3.562-3.562c0-1.964,1.598-3.562,3.562-3.562   c1.963,0,3.561,1.598,3.561,3.562C59.132,80.97,57.534,82.568,55.571,82.568z" fill="#AA96DA"></path><path d="M84.421,49.137c-2.405,0-4.375,1.814-4.665,4.144h-4.404c-0.285-2.011-1.995-3.562-4.084-3.562   c-2.288,0-4.143,1.854-4.143,4.143s1.854,4.143,4.143,4.143c2.089,0,3.799-1.551,4.084-3.562h4.404   c0.29,2.328,2.26,4.143,4.665,4.143c2.605,0,4.725-2.119,4.725-4.724C89.146,51.256,87.026,49.137,84.421,49.137z M84.421,57.423   c-1.963,0-3.562-1.598-3.562-3.562s1.599-3.562,3.562-3.562c1.964,0,3.562,1.598,3.562,3.562S86.385,57.423,84.421,57.423z" fill="#AA96DA"></path></g></g><g id="SvgjsG1037" featurekey="nameFeature-0" transform="matrix(1.2607410618966437,0,0,1.2607410618966437,77,-7.078461946040942)" fill="#AA96DA"><path d="M2.36 13.48 l4.52 0 l6.96 14.48 l0.84 -1.72 l-6.88 -14.24 l-7.8 0 l13.48 28 l0.68 0 l12.84 -26.52 l1.4 0 l-12.88 26.52 l1.64 0 l13.6 -28 l-4.68 0 l-12.24 25.2 z M13.88 34.44 l10.84 -22.44 l-1.68 0 l-9.16 19.04 l-7.88 -16.28 l-1.64 0 z M38.765 12 l4.2 0 l0 25.32 l-1.44 0 l0 -23.88 l-1.32 0 l0 25.12 l4.04 0 l0 -26.56 l1.44 0 l0 28 l-6.92 0 l0 -28 z M56.56999999999999 13.48 l4.52 0 l6.96 14.48 l0.84 -1.72 l-6.88 -14.24 l-7.8 0 l13.48 28 l0.68 0 l12.84 -26.52 l1.4 0 l-12.88 26.52 l1.64 0 l13.6 -28 l-4.68 0 l-12.24 25.2 z M68.08999999999999 34.44 l10.84 -22.44 l-1.68 0 l-9.16 19.04 l-7.88 -16.28 l-1.64 0 z M92.975 12 l4.2 0 l0 25.32 l-1.44 0 l0 -23.88 l-1.32 0 l0 25.12 l4.04 0 l0 -26.56 l1.44 0 l0 28 l-6.92 0 l0 -28 z M130.14 16.04 c-2.4 -2.52 -5.48 -4 -8.48 -4 l-11.72 0 l0 1.44 l11.72 0.04 c1.88 0 3.68 0.6 5.4 1.76 c3.36 2.36 5.6 6.6 5.6 10.72 c0 2.16 -0.48 4.16 -1.48 6.04 c-2 3.72 -6.04 6.44 -9.52 6.44 l-10.28 0 l0 -22.44 l9.96 0.04 c1.44 0 2.84 0.44 4.16 1.36 c2.68 1.8 4.44 5.24 4.44 8.56 c0 2.44 -1.04 4.96 -2.92 6.92 c-1.76 1.76 -3.88 2.88 -5.64 2.88 l-4.56 0 l0.04 -15.8 l-1.4 0 l-0.04 16.52 l0 0.72 l5.96 0 c2.2 0 4.76 -1.24 6.72 -3.32 c2.12 -2.28 3.28 -5.08 3.28 -7.92 c0 -2.88 -1.12 -5.76 -3.16 -8 c-2.2 -2.2 -4.6 -3.4 -6.88 -3.4 l-11.4 0 l0 25.36 l11.72 0 c2.88 0 6 -1.48 8.36 -4 c2.6 -2.68 4.04 -6.24 4.04 -9.96 s-1.36 -7.24 -3.92 -9.96 z M121.22 34.519999999999996 c1.12 0 2.28 -0.44 3.52 -1.28 c2.44 -1.72 4 -4.6 4 -7.28 c0 -1.44 -0.36 -2.84 -1.04 -4.2 c-1.4 -2.68 -3.92 -4.36 -6.48 -4.36 l-8.6 0.04 l0.04 19.88 l1.44 0 l0 -18.48 l7.12 -0.04 c0.92 0 1.88 0.36 2.88 1.04 c2.04 1.44 3.2 3.68 3.2 6.12 c0 1.64 -0.76 3.48 -2 4.88 s-2.76 2.24 -4.08 2.24 l-2.84 0 l0 1.44 l2.84 0 z M142.505 11.96 l1.48 0 l0 26.56 l3.96 0 l0 -9.64 l4.92 0 c1.8 0 3.28 -0.4 4.52 -1.24 c1.92 -1.16 2.92 -3.52 2.92 -6.6 c0 -4.96 -2.8 -7.6 -7.96 -7.6 l-5.72 0 l0 9.96 l5.12 0 c2.08 0 2.88 -0.64 2.88 -2.36 c0 -1.4 -0.68 -2.08 -2.08 -2.08 l-3.04 0 l0 3.24 l-1.48 0.04 l0 -4.68 l4.52 0 c2.2 0 3.44 1.28 3.44 3.48 c0 2.56 -1.4 3.84 -4.24 3.84 l-6.48 0 l0 -12.92 l7.08 0 c5.8 0 9.36 3.36 9.36 9.08 c0 5.92 -3.24 9.32 -8.84 9.32 l-3.44 0 l0 9.64 l-6.92 0 l0 -28.04 z M145.26500000000001 26.2 l6.72 0 c3.72 0 5.52 -1.6 5.52 -4.96 c0 -3.16 -1.72 -5 -4.48 -5 l-5 0 l0 -1.44 l5 0 c1.12 0 2.16 0.24 3.08 0.76 c1.88 1 2.84 3 2.84 5.68 c0 4.16 -2.32 6.36 -6.96 6.36 l-5.36 0 l0 10 l-1.36 0 l0 -11.4 z M173.35 37.52 l1.76 0 l1.4 -3.36 l10.44 0.04 l2.56 5.8 l7.36 -0.04 l-12.6 -27.96 l-2.56 0 l-12.52 27.96 l7.8 0 l1.36 -3.2 l7.96 0 l-0.6 -1.36 l-8.24 0 l-1.28 3.16 l-4.76 0 l11.08 -25.2 l0.96 0 l11.12 25.2 l-4.24 0 l-2.56 -5.72 l-12.4 0 z M178.10999999999999 30.48 l4.88 -11.64 l8.2 18.64 l1.64 0 l-9.84 -21.92 l-7.2 16.16 l11.6 0 l-4.4 -9.72 l-3.04 7.32 l1.56 0 l1.48 -3.64 l2.2 4.8 l-7.08 0 z M217.875 37.44 l1.44 0 l-0.04 -11.64 l8.52 -12.36 l1.56 0 l-8.68 12.44 l0 12.68 l-4.12 0 l0.04 -12.68 l-9.72 -13.88 l-1.76 0 l9.96 14.32 l0 13.68 l7.04 0 l0 -13.68 l10 -14.32 l-5.04 0 l-9.2 13.32 l0 12.12 z M223.755 12 l-6.68 9.8 l-5.92 -8.36 l1.56 0 l4.48 6.32 l0.88 -1.28 l-4.6 -6.48 l-5.04 0 l7.96 11.32 l0.68 1.04 l8.44 -12.36 l-1.76 0 z" fill="#AA96DA"></path></g></svg>