<svg xmlns:xlink="http://www.w3.org/1999/xlink" width="32" height="32" fill="none" xmlns="http://www.w3.org/2000/svg"><path d="M29.333 8v3.227c0 2.106-1.333 3.44-3.44 3.44h-4.56v-9.32c0-1.48 1.214-2.68 2.694-2.68a5.36 5.36 0 0 1 3.746 1.56A5.367 5.367 0 0 1 29.333 8Z" stroke="#8C6500" stroke-width="1.5px" stroke-miterlimit="10" stroke-linecap="round" stroke-linejoin="round" fill="none"></path><path d="M2.667 9.333V28c0 1.107 1.253 1.733 2.133 1.067l2.28-1.707c.533-.4 1.28-.347 1.76.133l2.213 2.227c.52.52 1.374.52 1.894 0l2.24-2.24a1.322 1.322 0 0 1 1.733-.12l2.28 1.707c.88.653 2.133.026 2.133-1.067V5.333c0-1.466 1.2-2.666 2.667-2.666H8C4 2.667 2.667 5.053 2.667 8v1.333Z" stroke="#8C6500" stroke-width="1.5px" stroke-miterlimit="10" stroke-linecap="round" stroke-linejoin="round" fill="none"></path><path d="M8.333 13.333h7.334M12 17V9.667" stroke="#8C6500" stroke-width="1.5px" stroke-linecap="round" stroke-linejoin="round" fill="none"></path></svg>