<svg xmlns:xlink="http://www.w3.org/1999/xlink" xmlns="http://www.w3.org/2000/svg" viewBox="0 0 360.00000000000006 135.16110103622458" height="135.16110103622458" width="360.00000000000006" style="width: 360px; height: 135.161px; position: absolute; top: 50%; left: 50%; transform: translate(-50%, -50%) scale(0.426556); z-index: 0; cursor: pointer;"><defs id="SvgjsDefs1093"></defs><g id="SvgjsG1094" featurekey="PG4fjM-0" transform="matrix(1.5645125693244433,0,0,1.5645125693244433,-25.18034125118751,-4.261723847632384)" fill="#9896F1"><g xmlns="http://www.w3.org/2000/svg" fill="#9896F1"><g fill="#9896F1"><path d="M58.143,38.405c-0.346-0.845-1.105-1.488-2.082-1.761l-9.197-2.597c-1.83-0.514-4.276,0.159-5.571,1.535l-0.001,0.002    c-0.075,0.08-7.63,8.175-14.068,18.994c-6.284,10.92-9.613,21.42-9.646,21.525c-0.562,1.793,0.069,4.221,1.437,5.527l6.879,6.561    c0.73,0.697,1.674,1.025,2.588,0.898c0.916-0.127,1.732-0.697,2.241-1.566l7.425-12.684c0.314-0.537,0.473-1.113,0.473-1.688    c0-0.354-0.061-0.707-0.183-1.047c-0.321-0.895-1.019-1.584-1.966-1.943l-4.842-1.846c-0.476-0.182-0.821-0.514-0.972-0.936    c-0.055-0.154-0.083-0.316-0.083-0.479c0-0.285,0.083-0.576,0.245-0.852c0,0,3.492-7.273,3.551-7.396    c0.078-0.111,4.68-6.674,4.68-6.674c0.291-0.492,0.676-0.777,1.121-0.859c0.448-0.084,0.913,0.045,1.312,0.361l4.04,3.215    c0.793,0.631,1.75,0.881,2.695,0.705c0.943-0.174,1.742-0.748,2.249-1.615l7.423-12.684C58.398,40.234,58.49,39.251,58.143,38.405    z M57.15,40.683l-7.424,12.684c-0.789,1.352-2.44,1.65-3.669,0.676l-4.041-3.215c-1.23-0.977-2.881-0.674-3.669,0.674l-4.72,6.73    l-3.548,7.396c-0.791,1.35-0.231,2.912,1.24,3.473l4.843,1.846c1.472,0.561,2.031,2.123,1.244,3.473l-7.424,12.684    c-0.79,1.348-2.364,1.566-3.498,0.484l-6.879-6.561c-1.134-1.082-1.681-3.186-1.215-4.674c0,0,3.263-10.393,9.567-21.35    c6.466-10.866,13.959-18.849,13.959-18.849c1.075-1.141,3.193-1.726,4.711-1.299l9.198,2.597    C57.344,37.88,57.939,39.335,57.15,40.683z" fill="#9896F1"></path></g><g fill="#9896F1"><path d="M56.289,39.148c-0.115-0.282-0.391-0.498-0.779-0.606l-9.198-2.597c-1.108-0.31-2.77,0.145-3.551,0.979    c-0.073,0.079-7.492,8.028-13.811,18.654c-6.16,10.699-9.431,21.006-9.463,21.109c-0.34,1.086,0.088,2.736,0.918,3.525    l6.877,6.561c0.29,0.275,0.616,0.406,0.92,0.361c0.305-0.043,0.584-0.254,0.786-0.598l7.423-12.684    c0.211-0.361,0.261-0.748,0.138-1.088c-0.12-0.34-0.406-0.613-0.8-0.764l-4.843-1.844c-1.012-0.387-1.793-1.16-2.138-2.119    c-0.343-0.963-0.228-2.047,0.316-2.977l-0.043,0.082l3.589-7.479l4.771-6.807l-0.05,0.078c0.544-0.932,1.438-1.572,2.454-1.757    c1.014-0.188,2.084,0.092,2.93,0.765l4.042,3.217c0.329,0.262,0.709,0.369,1.067,0.303c0.361-0.066,0.676-0.303,0.888-0.664    l7.423-12.685C56.357,39.773,56.404,39.429,56.289,39.148z M31.971,55.77c-4.695,8.156-7.187,16.012-7.212,16.09    c-0.261,0.828,0.066,2.084,0.698,2.684l4.863,4.643l-2.487,4.252c-0.154,0.262-0.366,0.422-0.6,0.457    c-0.231,0.031-0.482-0.066-0.702-0.273l-5.242-5.004c-0.631-0.602-0.958-1.857-0.698-2.684c0.025-0.08,2.517-7.936,7.212-16.09    c4.817-8.1,10.469-14.157,10.524-14.219c0.303-0.32,0.772-0.566,1.273-0.702C37.519,47.486,34.617,51.314,31.971,55.77z" fill="#9896F1"></path></g><path d="M71.756,18.521C59.422,6.356,39.854,5.937,28.051,17.584c-9.791,9.655-11.165,24.571-4.324,36.324   c0.037-0.098,0.068-0.197,0.108-0.291c-5.095-10.113-3.38-22.714,5.161-31.141c10.7-10.555,28.05-10.555,38.746,0   c10.701,10.557,10.701,27.672,0,38.225c-9.449,9.322-24.08,10.404-34.741,3.262c-0.034,0.008-0.069,0.018-0.104,0.025   c12.268,8.834,29.183,8.131,39.808-2.352C84.514,49.99,84.088,30.687,71.756,18.521z M71.412,60.363   c-1.506,1.482-3.15,2.74-4.895,3.807c0.869-0.68,1.717-1.402,2.52-2.193c11.393-11.24,11.396-29.534,0-40.774   C57.643,9.96,39.1,9.96,27.705,21.202c-0.797,0.788-1.53,1.618-2.214,2.47c1.078-1.713,2.351-3.334,3.853-4.815   c11.073-10.925,29.522-10.504,41.12,0.939C82.063,31.239,82.488,49.437,71.412,60.363z" fill="#9896F1"></path><path d="M61.77,56.844c7.635-7.528,7.357-20.002-0.613-27.867c-7.973-7.863-20.616-8.135-28.25-0.604   c-5.616,5.54-6.934,13.761-4.067,20.85c0.106-0.029,0.214-0.055,0.323-0.081C27.245,43.13,28.689,36.3,33.52,31.536   c6.914-6.822,18.127-6.822,25.044,0c6.914,6.822,6.914,17.883,0,24.703c-5.525,5.447-13.78,6.533-20.405,3.279   c-0.02,0.049-0.043,0.096-0.063,0.141C45.777,63.943,55.477,63.053,61.77,56.844z M59.398,57.063c7.363-7.263,7.363-19.086,0-26.35   c-7.365-7.267-19.349-7.267-26.714-0.001c-0.518,0.51-0.989,1.046-1.432,1.598c0.699-1.107,1.518-2.156,2.492-3.114   c7.155-7.062,19.08-6.792,26.576,0.606c7.5,7.396,7.773,19.159,0.615,26.218c-0.975,0.961-2.039,1.773-3.164,2.463   C58.332,58.045,58.879,57.576,59.398,57.063z" fill="#9896F1"></path></g></g><g id="SvgjsG1095" featurekey="jxYttZ-0" transform="matrix(2.9561943410236577,0,0,2.9561943410236577,139.9999985903767,38.2190268852584)" fill="#9896F1"><path d="M5.44 20 l-1.26 0 l-4.18 -9.88 l2.08 0 l2.72 6.9 l2.72 -6.9 l2.06 0 z M13.22 10.12 l0 9.88 l-2.06 0 l0 -9.88 l2.06 0 z M13.32 6.5 c0 0.64 -0.5 1.14 -1.14 1.14 c-0.62 0 -1.12 -0.5 -1.12 -1.14 c0 -0.62 0.5 -1.12 1.12 -1.12 c0.64 0 1.14 0.5 1.14 1.12 z M20.36 20 l-1.26 0 l-4.18 -9.88 l2.08 0 l2.72 6.9 l2.72 -6.9 l2.06 0 z M28.139999999999997 10.12 l0 9.88 l-2.06 0 l0 -9.88 l2.06 0 z M28.24 6.5 c0 0.64 -0.5 1.14 -1.14 1.14 c-0.62 0 -1.12 -0.5 -1.12 -1.14 c0 -0.62 0.5 -1.12 1.12 -1.12 c0.64 0 1.14 0.5 1.14 1.12 z M30.639999999999997 15.08 c0 -2.94 2.1 -5.14 4.94 -5.14 c0.98 0 2.18 0.42 2.84 0.96 l0 -5.9 l2.08 0 l0 15 l-2.08 0 l0 -0.74 c-0.78 0.58 -1.86 0.94 -2.84 0.94 c-2.84 0 -4.94 -2.18 -4.94 -5.12 z M32.72 15.08 c0 2 1.38 3.44 3.06 3.44 c1.12 0 2.12 -0.52 2.64 -1.58 c0.28 -0.54 0.44 -1.18 0.44 -1.86 s-0.16 -1.32 -0.44 -1.88 c-0.52 -1.06 -1.52 -1.56 -2.64 -1.56 c-1.68 0 -3.06 1.42 -3.06 3.44 z M52.959999999999994 15.08 c0 2.94 -2.12 5.12 -4.96 5.12 c-0.96 0 -2.18 -0.4 -2.84 -0.94 l0 5.84 l-2.06 0 l0 -14.98 l2.06 0 l0 0.78 c0.78 -0.6 1.88 -0.96 2.84 -0.96 c2.84 0 4.96 2.2 4.96 5.14 z M50.879999999999995 15.08 c0 -2.02 -1.38 -3.44 -3.08 -3.44 c-1.12 0 -2.1 0.5 -2.64 1.58 c-0.26 0.54 -0.42 1.18 -0.42 1.86 s0.16 1.32 0.42 1.86 c0.54 1.06 1.52 1.58 2.64 1.58 c1.7 0 3.08 -1.44 3.08 -3.44 z M59.379999999999995 9.92 c2.84 0 3.98 1.72 3.98 3.18 l0 6.9 l-2.06 0 l0 -1.08 c-0.72 0.98 -2 1.26 -2.8 1.26 c-2.26 0 -3.74 -1.32 -3.74 -3.08 c0 -2.46 1.84 -3.34 3.74 -3.34 l2.8 0 l0 -0.66 c0 -0.62 -0.24 -1.48 -1.92 -1.48 c-0.94 0 -1.8 0.5 -2.36 1.28 l-1.42 -1.28 c0.94 -1.04 2.28 -1.7 3.78 -1.7 z M61.3 16.92 l0 -1.48 l-2.52 0 c-1.22 0 -2.08 0.62 -1.94 1.74 c0.12 0.94 0.88 1.32 1.94 1.32 c1.9 0 2.52 -0.9 2.52 -1.58 z M74.41999999999999 10.12 c0 0 -2.5 5.92 -4.16 9.88 c-1.4 3.32 -2.5 5.32 -4.36 5.32 c-0.58 0 -1.32 -0.28 -1.86 -0.6 l0.62 -1.8 c0.16 0.14 0.52 0.34 0.76 0.4 c1.54 0.44 2.5 -2.78 3.16 -4.36 l-3.74 -8.84 l2.08 0 l2.72 6.48 l2.7 -6.48 l2.08 0 z" fill="#9896F1"></path></g></svg>