<svg xmlns:xlink="http://www.w3.org/1999/xlink" width="32" height="32" fill="none" xmlns="http://www.w3.org/2000/svg"><path d="M25.213 19.59c0 1.72 1.414 3.12 3.134 3.12 0 5-1.254 6.253-6.254 6.253H9.587c-5 0-6.253-1.253-6.253-6.253v-.613a3.147 3.147 0 0 0 3.133-3.134 3.147 3.147 0 0 0-3.133-3.133v-.613c.013-5 1.253-6.254 6.253-6.254H22.08c5 0 6.254 1.254 6.254 6.254v1.253a3.115 3.115 0 0 0-3.12 3.12ZM21.615 8.963H9.495L13.4 5.057c3.187-3.187 4.787-3.187 7.974 0l.8.8c-.84.84-1.04 2.08-.56 3.106Z" stroke="#4317C0" stroke-width="1.5px" stroke-linecap="round" stroke-linejoin="round" fill="none"></path><path d="M13.172 8.963v20" stroke="#4317C0" stroke-width="1.5px" stroke-linecap="round" stroke-linejoin="round" stroke-dasharray="5 5" fill="none"></path></svg>