<svg xmlns:xlink="http://www.w3.org/1999/xlink" width="32" height="32" viewBox="0 0 32 32" fill="none" xmlns="http://www.w3.org/2000/svg"><path d="M25.214 19.59C25.214 21.31 26.6273 22.71 28.3473 22.71C28.3473 27.71 27.094 28.9634 22.094 28.9634H9.58732C4.58732 28.9634 3.33398 27.71 3.33398 22.71V22.0967C5.05398 22.0967 6.46732 20.6834 6.46732 18.9634C6.46732 17.2434 5.05398 15.83 3.33398 15.83V15.2167C3.34732 10.2167 4.58732 8.96338 9.58732 8.96338H22.0807C27.0807 8.96338 28.334 10.2167 28.334 15.2167V16.47C26.614 16.47 25.214 17.8567 25.214 19.59Z" stroke="#4317C0" stroke-width="1.5px" stroke-linecap="round" stroke-linejoin="round" fill="none"></path><path d="M21.6141 8.96317H9.49414L13.4008 5.0565C16.5875 1.86984 18.1875 1.86984 21.3741 5.0565L22.1741 5.8565C21.3341 6.6965 21.1341 7.9365 21.6141 8.96317Z" stroke="#4317C0" stroke-width="1.5px" stroke-linecap="round" stroke-linejoin="round" fill="none"></path><path d="M13.1719 8.96338L13.1719 28.9634" stroke="#4317C0" stroke-width="1.5px" stroke-linecap="round" stroke-linejoin="round" stroke-dasharray="5 5" fill="none"></path></svg>