<svg xmlns:xlink="http://www.w3.org/1999/xlink" width="32" height="32" viewBox="0 0 32 32" fill="none" xmlns="http://www.w3.org/2000/svg"><path d="M15.9993 29.3333C23.3631 29.3333 29.3327 23.3638 29.3327 16C29.3327 8.63616 23.3631 2.66663 15.9993 2.66663C8.63555 2.66663 2.66602 8.63616 2.66602 16C2.66602 23.3638 8.63555 29.3333 15.9993 29.3333Z" stroke="#6401A6" stroke-width="1.5px" stroke-linecap="round" stroke-linejoin="round" fill="none"></path><path d="M10.6674 4H12.0008C9.40078 11.7867 9.40078 20.2133 12.0008 28H10.6674" stroke="#6401A6" stroke-width="1.5px" stroke-linecap="round" stroke-linejoin="round" fill="none"></path><path d="M20 4C22.6 11.7867 22.6 20.2133 20 28" stroke="#6401A6" stroke-width="1.5px" stroke-linecap="round" stroke-linejoin="round" fill="none"></path><path d="M4 21.3333V20C11.7867 22.6 20.2133 22.6 28 20V21.3333" stroke="#6401A6" stroke-width="1.5px" stroke-linecap="round" stroke-linejoin="round" fill="none"></path><path d="M4 12C11.7867 9.40005 20.2133 9.40005 28 12" stroke="#6401A6" stroke-width="1.5px" stroke-linecap="round" stroke-linejoin="round" fill="none"></path></svg>