<svg xmlns:xlink="http://www.w3.org/1999/xlink" width="32" height="31" viewBox="0 0 32 31" fill="none" xmlns="http://www.w3.org/2000/svg"><rect width="32" height="30.1176" rx="5" fill="#9672FF"></rect><path d="M16 25C21.5228 25 26 20.5228 26 15C26 9.47715 21.5228 5 16 5C10.4772 5 6 9.47715 6 15C6 20.5228 10.4772 25 16 25Z" stroke="#FFFFFF" stroke-width="1.5px" stroke-linecap="round" stroke-linejoin="round" fill="none"></path><path fill-rule="evenodd" clip-rule="evenodd" d="M20.0032 10H18.5362V13.3796H15.7487L13.4498 10H12.0787V13.3796H11V14.3981H12.0787V15.4167H11V16.4352H12.0787V20H13.56V16.4352H16.2159L18.6417 20H20.0032V16.4352H21V15.4167H20.0032V14.3981H21V13.3796H20.0032V10ZM18.5362 15.4167V14.3981H16.4415L17.1343 15.4167H18.5362ZM17.8271 16.4352L18.4451 17.3437H18.5362V16.4352H17.8271ZM15.5228 15.4167L14.8298 14.3981H13.56V15.4167H15.5228ZM13.6511 12.666L14.1367 13.3796H13.56V12.666H13.6511Z" fill="#FFFFFF"></path></svg>