<svg xmlns:xlink="http://www.w3.org/1999/xlink" width="32" height="32" viewBox="0 0 32 32" fill="none" xmlns="http://www.w3.org/2000/svg"><path d="M19.0163 20.5845H12.3496" stroke="#2F7288" stroke-width="1.5px" stroke-miterlimit="10" stroke-linecap="round" stroke-linejoin="round" fill="none"></path><path d="M15.6816 17.3306V23.9972" stroke="#2F7288" stroke-width="1.5px" stroke-miterlimit="10" stroke-linecap="round" stroke-linejoin="round" fill="none"></path><path d="M16.8799 3.35735L16.8399 3.45068L12.9733 12.424H9.17328C8.26661 12.424 7.39995 12.6107 6.61328 12.944L8.94661 7.37068L8.99995 7.23735L9.09328 7.02402C9.11995 6.94402 9.14661 6.86402 9.18661 6.79735C10.9333 2.75735 12.9066 1.83735 16.8799 3.35735Z" stroke="#2F7288" stroke-width="1.5px" stroke-linecap="round" stroke-linejoin="round" fill="none"></path><path d="M24.066 12.6908C23.466 12.5041 22.826 12.4241 22.186 12.4241H12.9727L16.8393 3.45076L16.8793 3.35742C17.0793 3.42409 17.266 3.51742 17.466 3.59742L20.4127 4.83742C22.0527 5.51742 23.1993 6.22409 23.8927 7.07742C24.026 7.23742 24.1327 7.38409 24.226 7.55742C24.346 7.74409 24.4393 7.93076 24.4927 8.13076C24.546 8.25076 24.586 8.37076 24.6127 8.47742C24.9727 9.59742 24.7593 10.9708 24.066 12.6908Z" stroke="#2F7288" stroke-width="1.5px" stroke-linecap="round" stroke-linejoin="round" fill="none"></path><path d="M28.695 18.931V21.531C28.695 21.7976 28.6816 22.0643 28.6683 22.331C28.415 26.9843 25.815 29.331 20.8816 29.331H10.4816C10.1616 29.331 9.84164 29.3043 9.53497 29.2643C5.29497 28.9843 3.02831 26.7176 2.74831 22.4776C2.70831 22.171 2.68164 21.851 2.68164 21.531V18.931C2.68164 16.251 4.30831 13.9443 6.62831 12.9443C7.42831 12.611 8.28164 12.4243 9.18831 12.4243H22.2016C22.855 12.4243 23.495 12.5177 24.0816 12.691C26.735 13.5043 28.695 15.9843 28.695 18.931Z" stroke="#2F7288" stroke-width="1.5px" stroke-linecap="round" stroke-linejoin="round" fill="none"></path><path d="M8.94602 7.37061L6.61268 12.9439C4.29268 13.9439 2.66602 16.2506 2.66602 18.9306V15.0239C2.66602 11.2373 5.35935 8.07727 8.94602 7.37061Z" stroke="#2F7288" stroke-width="1.5px" stroke-linecap="round" stroke-linejoin="round" fill="none"></path><path d="M28.6915 15.0237V18.9304C28.6915 15.997 26.7448 13.5037 24.0781 12.7037C24.7715 10.9704 24.9715 9.61037 24.6381 8.47704C24.6115 8.35704 24.5715 8.23704 24.5181 8.13037C26.9981 9.41037 28.6915 12.037 28.6915 15.0237Z" stroke="#2F7288" stroke-width="1.5px" stroke-linecap="round" stroke-linejoin="round" fill="none"></path></svg>