<svg xmlns:xlink="http://www.w3.org/1999/xlink" width="32" height="31" viewBox="0 0 32 31" fill="none" xmlns="http://www.w3.org/2000/svg"><rect width="32" height="30.1176" rx="5" fill="#1E8A5E"></rect><path d="M26 15C26 20.52 21.52 25 16 25C10.48 25 6 20.52 6 15C6 9.48 10.48 5 16 5" stroke="#FFFFFF" stroke-width="1.5px" stroke-linecap="round" stroke-linejoin="round" fill="none"></path><path d="M21 6V10H25" stroke="#FFFFFF" stroke-width="1.5px" stroke-linecap="round" stroke-linejoin="round" fill="none"></path><path d="M26 5L21 10" stroke="#FFFFFF" stroke-width="1.5px" stroke-linecap="round" stroke-linejoin="round" fill="none"></path><path fill-rule="evenodd" clip-rule="evenodd" d="M19.2026 11H18.029V13.7037H15.7989L13.9598 11H12.8629V13.7037H12V14.5185H12.8629V15.3333H12V16.1481H12.8629V19H14.048V16.1481H16.1727L18.1134 19H19.2026V16.1481H20V15.3333H19.2026V14.5185H20V13.7037H19.2026V11ZM18.029 15.3333V14.5185H16.3532L16.9074 15.3333H18.029ZM17.4617 16.1481L17.9561 16.875H18.029V16.1481H17.4617ZM15.6183 15.3333L15.0638 14.5185H14.048V15.3333H15.6183ZM14.1209 13.1328L14.5094 13.7037H14.048V13.1328H14.1209Z" fill="#FFFFFF"></path></svg>